<?xml version="1.0" standalone="no"?>
<!DOCTYPE svg PUBLIC "-//W3C//DTD SVG 20010904//EN"
 "http://www.w3.org/TR/2001/REC-SVG-20010904/DTD/svg10.dtd">
<svg version="1.0" xmlns="http://www.w3.org/2000/svg"
 width="100.000000pt" height="100.000000pt" viewBox="0 0 100.000000 100.000000"
 preserveAspectRatio="xMidYMid meet">
<metadata>
Created by potrace 1.15, written by Peter Selinger 2001-2017
</metadata>
<g transform="translate(0.000000,100.000000) scale(0.100000,-0.100000)"
fill="#000000" stroke="none">
<path d="M325 844 c-86 -21 -213 -86 -275 -143 l-54 -48 53 -61 c30 -34 56
-62 58 -62 2 0 27 18 55 41 105 83 208 119 338 119 130 0 233 -36 338 -119 28
-23 53 -41 55 -41 2 0 28 28 58 62 l53 61 -54 48 c-64 58 -190 123 -280 144
-82 19 -264 18 -345 -1z m330 -50 c73 -17 187 -72 238 -115 l38 -31 -21 -23
-22 -23 -48 34 c-100 72 -204 104 -340 104 -136 0 -240 -32 -340 -104 l-48
-34 -21 22 -21 22 22 21 c13 12 49 37 82 57 141 85 314 110 481 70z"/>
<path d="M355 603 c-66 -24 -133 -64 -167 -100 l-28 -29 59 -58 58 -58 49 35
c63 44 103 57 177 57 43 0 76 -7 117 -26 47 -21 62 -24 79 -14 28 14 21 25
-42 58 -47 24 -62 27 -157 27 -100 0 -108 -2 -165 -33 l-59 -32 -23 22 -23 23
35 23 c140 97 330 97 470 0 l34 -23 -21 -22 -21 -23 35 0 c23 0 42 8 57 24
l22 23 -42 38 c-23 20 -71 51 -108 68 -59 29 -77 32 -176 35 -86 2 -121 -2
-160 -15z"/>
<path d="M693 374 c-62 -37 -93 -95 -93 -174 0 -80 31 -138 94 -175 60 -35
152 -35 212 0 63 37 94 95 94 175 0 123 -77 200 -201 200 -51 0 -73 -5 -106
-26z m185 -44 c130 -79 74 -280 -78 -280 -85 0 -150 65 -150 150 0 116 129
190 228 130z"/>
<path d="M834 240 c-27 -32 -53 -59 -57 -59 -4 -1 -21 9 -37 21 -30 21 -30 21
-45 2 -13 -17 -12 -21 13 -42 74 -64 67 -65 143 18 38 41 68 80 69 85 0 6 -9
16 -19 22 -17 10 -25 5 -67 -47z"/>
<path d="M408 366 c-42 -22 -77 -50 -78 -61 0 -6 38 -48 85 -95 l85 -84 35 34
c26 25 35 42 35 67 0 41 -6 41 -41 1 l-28 -33 -45 50 c-25 28 -45 53 -46 58
-1 24 122 34 170 13 9 -4 20 1 27 14 11 17 9 21 -17 35 -37 19 -146 20 -182 1z"/>
</g>
</svg>
