<?xml version="1.0" standalone="no"?>
<!DOCTYPE svg PUBLIC "-//W3C//DTD SVG 20010904//EN"
 "http://www.w3.org/TR/2001/REC-SVG-20010904/DTD/svg10.dtd">
<svg version="1.0" xmlns="http://www.w3.org/2000/svg"
 width="500.000000pt" height="500.000000pt" viewBox="0 0 500.000000 500.000000"
 preserveAspectRatio="xMidYMid meet">
<metadata>
Created by potrace 1.15, written by Peter Selinger 2001-2017
</metadata>
<g transform="translate(0.000000,500.000000) scale(0.100000,-0.100000)"
fill="#000000" stroke="none">
<path d="M1918 4323 c20 -8 14 -30 -10 -37 -13 -3 -71 -6 -130 -6 -99 0 -106
-1 -101 -19 6 -24 -20 -31 -119 -31 -67 0 -77 -2 -71 -16 9 -24 -15 -34 -89
-34 -58 0 -66 -2 -61 -16 9 -24 -15 -34 -86 -34 -49 0 -62 -3 -58 -14 9 -23
-15 -36 -68 -36 -47 0 -52 -2 -51 -22 1 -21 -4 -23 -51 -26 -44 -3 -53 -6 -53
-21 0 -22 -19 -31 -66 -31 -27 0 -34 -4 -34 -19 0 -22 -19 -31 -64 -31 -27 0
-32 -4 -32 -22 1 -20 -5 -23 -47 -26 -35 -2 -47 -7 -44 -16 8 -21 -13 -36 -50
-36 -24 0 -31 -4 -27 -14 6 -16 -24 -36 -55 -36 -13 0 -21 -8 -23 -22 -2 -19
-10 -24 -40 -26 -26 -2 -35 -7 -32 -17 6 -15 -25 -35 -55 -35 -13 0 -21 -8
-23 -22 -2 -17 -11 -24 -31 -26 -15 -2 -27 -9 -26 -15 4 -29 -3 -37 -32 -37
-18 0 -28 -4 -24 -10 9 -15 -14 -40 -36 -40 -11 0 -19 -7 -19 -15 0 -9 -10
-19 -23 -24 -12 -5 -35 -23 -51 -40 -17 -17 -36 -31 -43 -31 -7 0 -13 -7 -13
-15 0 -9 -11 -21 -25 -27 -14 -6 -25 -17 -25 -25 0 -7 -7 -16 -15 -19 -21 -9
-21 -146 0 -164 8 -7 15 -18 15 -25 0 -7 9 -15 21 -18 11 -3 23 -14 26 -25 3
-11 14 -22 25 -25 11 -3 22 -14 25 -25 3 -11 14 -22 25 -25 11 -3 22 -14 25
-25 3 -11 14 -22 25 -25 11 -3 22 -14 24 -24 3 -10 15 -23 27 -28 13 -6 22
-19 21 -32 0 -14 4 -19 14 -15 19 7 43 -25 35 -46 -5 -11 -2 -14 10 -9 21 8
48 -19 40 -39 -4 -10 -1 -15 8 -14 30 5 39 -1 39 -25 0 -20 5 -25 24 -25 19 0
25 -6 28 -27 2 -19 10 -29 28 -33 15 -4 24 -13 24 -23 -2 -14 7 -17 47 -17 43
0 49 3 49 20 0 12 10 25 24 31 13 6 27 20 29 31 3 11 15 22 26 25 12 3 21 12
21 19 0 8 11 20 25 26 14 6 25 17 25 24 0 17 30 33 49 26 8 -2 11 0 7 6 -12
20 6 42 36 42 23 0 29 4 24 15 -6 16 21 35 51 35 10 0 23 10 28 23 6 13 21 23
38 25 15 2 27 9 26 15 -4 31 3 37 40 37 33 0 40 4 43 23 2 18 10 23 41 25 28
2 37 8 37 21 0 19 26 31 66 31 15 0 20 6 20 23 -1 20 4 22 56 25 47 2 56 6 51
18 -8 22 14 34 66 34 34 0 42 3 37 15 -8 22 25 35 88 35 47 0 54 3 49 16 -9
24 15 34 89 34 58 0 66 2 61 16 -10 26 16 34 114 34 81 0 92 2 86 16 -3 9 0
20 8 25 8 5 120 9 249 9 162 1 227 4 211 11 -40 16 -9 32 59 32 68 0 99 -16
59 -32 -16 -7 49 -10 211 -11 129 0 241 -4 249 -9 8 -5 11 -16 8 -25 -6 -14 5
-16 86 -16 98 0 124 -8 114 -34 -5 -14 3 -16 61 -16 74 0 98 -10 89 -34 -5
-13 2 -16 49 -16 67 0 101 -14 83 -36 -10 -12 -4 -14 34 -14 58 0 77 -8 77
-31 0 -15 9 -18 53 -21 47 -3 52 -5 51 -25 0 -19 5 -23 28 -23 39 0 69 -17 62
-35 -4 -10 4 -15 33 -17 30 -2 39 -7 41 -25 3 -18 11 -22 45 -25 36 -3 42 -6
41 -25 0 -17 5 -23 21 -23 22 0 53 -27 47 -39 -2 -3 13 -10 32 -14 26 -7 36
-14 36 -28 0 -14 7 -19 29 -19 29 0 47 -22 35 -42 -4 -6 -1 -8 7 -6 19 7 49
-9 49 -26 0 -7 11 -18 25 -24 14 -6 25 -18 25 -26 0 -7 9 -16 21 -19 11 -3 23
-14 26 -25 2 -11 16 -25 29 -31 14 -6 24 -19 24 -31 0 -17 6 -20 49 -20 44 0
49 2 44 19 -4 15 1 20 23 23 21 2 30 10 34 28 4 16 14 26 28 28 16 2 22 10 22
28 0 19 5 24 26 24 19 0 25 4 20 15 -7 20 21 46 41 38 12 -5 15 -2 10 9 -8 21
16 53 35 46 10 -4 14 1 14 15 -1 13 8 26 21 32 12 5 24 18 27 28 2 10 13 21
24 24 11 3 22 14 25 25 3 11 14 22 25 25 11 3 22 14 25 25 3 11 14 22 25 25
11 3 22 14 25 25 3 11 15 22 26 25 12 3 21 11 21 18 0 7 7 18 15 25 21 18 21
155 0 164 -8 3 -15 12 -15 19 0 8 -11 19 -25 25 -14 6 -25 18 -25 27 0 8 -6
15 -13 15 -7 0 -26 14 -43 31 -16 17 -39 35 -51 40 -13 5 -23 15 -23 23 0 7
-14 16 -31 20 -25 5 -30 10 -26 26 4 17 0 20 -24 20 -16 0 -30 5 -30 10 -1 6
-2 16 -3 23 -1 6 -12 14 -26 17 -16 3 -26 13 -28 28 -2 14 -10 22 -23 22 -30
0 -61 20 -55 35 3 10 -6 15 -32 17 -29 2 -38 8 -40 24 -2 17 -12 23 -44 28
-34 6 -39 10 -35 26 4 17 0 20 -27 20 -36 0 -57 16 -49 36 3 9 -9 14 -44 16
-42 3 -48 6 -47 26 0 18 -5 22 -32 22 -45 0 -64 9 -64 31 0 14 -9 18 -47 21
-41 3 -48 6 -51 25 -3 19 -10 22 -55 25 -45 3 -52 6 -55 26 -3 19 -9 22 -51
22 -49 0 -73 13 -64 36 4 10 -12 14 -64 16 -62 3 -68 5 -71 26 -3 20 -9 22
-70 22 -74 0 -98 10 -89 34 6 14 -4 16 -71 16 -99 0 -125 7 -119 31 5 18 -2
19 -101 19 -59 0 -117 3 -129 6 -25 7 -31 29 -10 37 6 3 -256 5 -583 5 -327 0
-589 -2 -582 -5z m702 -270 c24 -7 23 -8 -15 -19 -34 -11 -4 -13 203 -13 249
-1 296 -7 271 -37 -10 -12 4 -14 97 -14 114 0 141 -7 131 -34 -6 -14 5 -16 76
-16 83 0 110 -10 100 -36 -4 -11 9 -14 58 -14 71 0 95 -10 86 -34 -5 -13 2
-16 46 -16 59 0 83 -11 74 -34 -5 -13 2 -16 46 -16 59 0 83 -11 74 -34 -5 -13
1 -16 36 -16 50 0 72 -12 64 -34 -5 -12 0 -16 21 -16 50 0 74 -11 69 -31 -4
-16 1 -19 32 -19 40 0 62 -15 54 -36 -3 -9 8 -14 39 -16 36 -2 44 -7 46 -25 2
-15 10 -23 23 -23 31 0 59 -19 53 -35 -4 -10 4 -15 33 -17 31 -2 39 -7 41 -25
2 -15 10 -23 22 -23 11 0 27 -11 36 -25 9 -14 26 -25 38 -25 27 0 46 -18 39
-35 -3 -9 5 -15 24 -17 20 -2 29 -9 31 -25 2 -15 11 -23 30 -25 33 -4 36 -29
5 -43 -13 -5 -23 -14 -23 -20 0 -6 -25 -35 -56 -65 -31 -30 -60 -65 -65 -77
-11 -30 -32 -29 -63 2 -14 14 -32 25 -41 25 -8 0 -15 9 -15 20 0 16 -7 20 -30
20 -28 0 -35 8 -31 37 1 6 -11 13 -26 15 -17 2 -32 12 -38 26 -6 14 -18 22
-35 22 -34 0 -54 15 -47 34 5 12 0 16 -21 16 -36 0 -56 14 -49 33 5 13 -3 17
-41 19 -41 3 -47 6 -46 26 0 18 -5 22 -28 22 -39 0 -69 17 -62 35 5 12 -3 15
-37 15 -52 0 -74 12 -66 34 5 13 -2 16 -41 16 -50 0 -74 13 -65 36 3 10 -10
14 -54 16 -51 3 -58 6 -61 26 -3 20 -9 22 -66 22 -63 0 -89 12 -79 36 4 11
-11 14 -73 14 -85 0 -110 9 -101 34 6 14 -7 16 -101 16 -112 0 -139 7 -129 34
6 15 -41 16 -513 16 -472 0 -519 -1 -513 -16 10 -27 -17 -34 -129 -34 -94 0
-107 -2 -101 -16 9 -25 -16 -34 -101 -34 -62 0 -77 -3 -73 -14 10 -24 -16 -36
-79 -36 -57 0 -63 -2 -66 -22 -3 -20 -10 -23 -61 -26 -44 -2 -57 -6 -54 -16 9
-23 -15 -36 -64 -36 -41 0 -46 -2 -42 -19 5 -21 -19 -31 -79 -31 -30 0 -35 -3
-31 -19 5 -19 -19 -31 -63 -31 -15 0 -20 -6 -20 -22 1 -20 -5 -23 -46 -26 -38
-2 -46 -6 -41 -19 7 -19 -13 -33 -51 -33 -21 0 -27 -4 -22 -15 6 -16 -21 -35
-51 -35 -10 0 -23 -10 -28 -22 -6 -13 -21 -25 -35 -28 -17 -3 -25 -12 -25 -25
0 -15 -8 -21 -33 -23 -20 -2 -32 -9 -32 -18 0 -8 -11 -19 -24 -24 -14 -5 -30
-18 -36 -30 -13 -25 -47 -26 -54 -2 -3 10 -45 57 -92 105 -47 48 -82 92 -79
97 3 6 17 10 31 10 19 0 24 5 24 25 0 21 5 25 31 25 22 0 30 4 26 14 -7 18 12
36 39 36 12 0 29 11 38 25 9 14 25 25 36 25 12 0 20 8 22 23 2 18 10 23 41 25
29 2 37 7 33 17 -6 16 22 35 53 35 13 0 21 8 23 23 2 18 10 23 46 25 31 2 42
7 39 16 -8 21 14 36 55 36 30 0 36 3 31 16 -8 21 14 34 59 34 30 0 36 3 31 16
-8 22 14 34 64 34 35 0 41 3 36 16 -9 23 15 34 74 34 44 0 51 3 46 16 -9 23
15 34 74 34 44 0 51 3 46 16 -9 24 15 34 86 34 49 0 62 3 58 14 -10 26 17 36
100 36 71 0 82 2 76 16 -10 26 17 34 124 34 94 0 101 1 96 19 -7 28 17 31 282
32 209 0 235 2 200 13 l-40 13 40 7 c22 4 45 9 50 12 14 5 144 -4 175 -13z"/>
<path d="M2035 3120 c4 -6 1 -17 -5 -25 -9 -11 -37 -15 -111 -15 -86 0 -98 -2
-92 -16 9 -24 -15 -34 -84 -34 -53 0 -61 -2 -56 -16 9 -24 -15 -34 -79 -34
-48 0 -56 -2 -51 -16 8 -23 -14 -34 -70 -34 -31 0 -46 -4 -42 -10 12 -19 -17
-40 -55 -40 -32 0 -37 -3 -33 -19 5 -19 -19 -31 -66 -31 -15 0 -21 -4 -18 -14
9 -22 -14 -36 -56 -36 -29 0 -38 -4 -34 -14 7 -18 -12 -36 -38 -36 -16 0 -21
-6 -21 -22 1 -19 -5 -23 -36 -26 -23 -2 -38 -8 -38 -16 0 -8 -11 -21 -24 -30
-14 -8 -36 -27 -50 -41 -14 -14 -30 -25 -36 -25 -5 0 -10 -7 -10 -15 0 -9 -11
-21 -25 -27 -14 -6 -25 -18 -25 -25 0 -8 -13 -20 -30 -26 -18 -7 -30 -19 -30
-30 0 -29 -20 -59 -36 -53 -10 4 -14 -2 -14 -19 0 -14 6 -25 13 -25 6 0 41
-32 77 -72 36 -39 89 -94 118 -123 28 -29 52 -57 52 -63 0 -5 9 -12 21 -15 11
-3 23 -14 26 -25 3 -11 14 -22 25 -25 11 -3 22 -14 25 -25 3 -11 14 -22 25
-25 11 -3 22 -14 25 -25 3 -11 14 -22 25 -25 11 -3 22 -14 25 -25 3 -11 14
-22 25 -25 11 -3 22 -14 24 -24 3 -10 15 -23 27 -28 12 -6 23 -20 25 -32 3
-21 8 -23 72 -23 64 0 69 2 72 23 2 12 13 26 26 32 12 5 22 16 22 23 0 7 11
18 25 24 14 6 25 17 25 24 0 14 39 40 41 27 1 -4 4 3 8 17 5 20 14 26 43 28
30 3 35 6 31 22 -4 16 2 21 35 26 32 5 42 11 44 28 2 17 12 22 48 26 37 4 45
9 45 25 0 17 8 21 55 25 47 4 55 8 55 25 0 18 8 20 73 23 57 2 73 6 69 16 -12
30 17 36 182 37 113 0 159 3 143 10 -13 5 -21 13 -18 18 10 16 99 23 131 11
29 -11 29 -12 11 -26 -18 -12 -2 -14 135 -14 157 0 187 -6 176 -34 -5 -14 3
-16 61 -16 74 0 98 -10 89 -34 -5 -13 2 -16 41 -16 50 0 74 -13 65 -36 -3 -9
9 -14 44 -16 42 -3 48 -6 47 -25 0 -18 5 -23 26 -23 31 0 51 -17 43 -36 -4
-11 10 -14 71 -14 65 0 75 2 69 16 -8 22 14 34 64 34 33 0 41 3 37 15 -4 10 3
18 19 24 39 15 52 46 38 92 -9 28 -17 39 -31 39 -13 0 -20 7 -20 19 0 15 -8
21 -32 23 -25 2 -34 8 -36 24 -2 17 -12 23 -43 28 -30 5 -39 11 -39 26 0 16
-7 20 -33 20 -37 0 -58 15 -50 36 4 11 -6 14 -38 14 -52 0 -74 12 -66 34 5 14
-3 16 -51 16 -64 0 -88 10 -79 34 6 14 -4 16 -69 16 -85 0 -122 13 -103 36 10
12 -44 14 -401 14 -357 0 -411 -2 -401 -14 19 -23 -18 -36 -103 -36 -65 0 -75
-2 -69 -16 9 -24 -15 -34 -79 -34 -48 0 -56 -2 -51 -16 8 -22 -14 -34 -64 -34
-35 0 -42 -3 -45 -22 -2 -19 -10 -24 -46 -26 -33 -2 -42 -7 -38 -17 6 -16 -22
-35 -53 -35 -13 0 -21 -8 -23 -22 -2 -18 -11 -24 -35 -26 -23 -2 -33 -8 -33
-20 0 -23 -58 -46 -77 -31 -7 6 -13 17 -13 24 0 7 -9 15 -21 18 -11 3 -23 14
-26 25 -3 11 -14 22 -25 25 -11 3 -22 14 -24 24 -3 10 -15 23 -27 28 -17 8
-22 18 -22 50 0 36 3 40 27 43 19 2 28 10 30 25 2 18 11 23 46 25 31 2 42 7
39 16 -8 19 13 36 43 36 21 0 26 5 26 23 -1 19 5 22 41 25 34 3 42 7 45 25 3
19 10 22 51 25 35 2 47 7 44 16 -9 23 15 36 70 36 44 0 51 3 46 16 -9 24 15
34 81 34 45 0 57 3 53 14 -11 27 17 36 106 36 76 0 88 2 78 14 -24 28 22 36
215 36 165 0 185 2 168 14 -19 14 -19 15 1 23 26 10 104 10 130 0 20 -8 20 -9
1 -23 -17 -12 3 -14 168 -14 193 0 239 -8 215 -36 -10 -12 2 -14 78 -14 89 0
117 -9 106 -36 -4 -11 8 -14 53 -14 66 0 90 -10 81 -34 -5 -13 2 -16 46 -16
55 0 79 -13 70 -36 -3 -9 9 -14 44 -16 42 -3 48 -6 47 -25 0 -20 5 -23 35 -23
44 0 66 -13 58 -33 -4 -12 2 -17 26 -19 22 -2 35 -10 42 -25 7 -16 20 -23 45
-25 27 -2 35 -7 35 -23 0 -14 8 -21 30 -25 28 -5 30 -8 30 -45 0 -32 -5 -42
-22 -50 -12 -5 -24 -18 -27 -28 -2 -10 -13 -21 -24 -24 -11 -2 -25 -16 -31
-29 -6 -13 -19 -24 -30 -24 -16 0 -20 -9 -23 -52 -2 -29 -4 -53 -4 -53 46 0
357 12 349 13 -7 1 -13 8 -13 16 0 10 17 17 56 22 39 4 58 12 62 24 10 26 135
160 150 160 6 0 12 11 12 25 0 17 -4 23 -14 19 -16 -6 -36 24 -36 53 0 11 -12
23 -30 30 -16 6 -30 18 -30 26 0 7 -11 19 -25 25 -14 6 -25 18 -25 25 0 8 -11
19 -25 25 -14 6 -25 18 -25 26 0 8 -16 20 -35 26 -23 8 -35 18 -35 30 0 14 -9
20 -37 22 -32 3 -38 7 -37 26 0 16 -5 22 -21 22 -26 0 -50 24 -40 40 4 6 -8
10 -33 10 -40 0 -69 20 -57 40 3 6 -3 10 -17 10 -46 0 -70 12 -65 31 4 16 -1
19 -31 19 -45 0 -67 13 -59 34 5 13 -2 16 -41 16 -54 0 -77 11 -69 34 5 12 -5
16 -56 18 -56 3 -62 5 -65 26 -3 20 -9 22 -65 22 -69 0 -93 10 -84 34 6 14 -6
16 -92 16 -74 0 -102 4 -111 15 -6 8 -9 19 -5 25 4 7 -140 10 -465 10 -325 0
-469 -3 -465 -10z"/>
<path d="M3687 2014 c9 -23 -15 -34 -79 -34 -50 0 -56 -2 -51 -19 5 -20 -19
-31 -69 -31 -21 0 -26 -4 -21 -16 8 -20 -13 -34 -54 -34 -25 0 -32 -5 -35 -22
-2 -15 -12 -25 -28 -28 -14 -3 -25 -11 -26 -17 -2 -30 -5 -33 -28 -33 -18 0
-25 -6 -28 -22 -2 -15 -11 -24 -25 -26 -17 -3 -23 -10 -23 -28 0 -23 -3 -26
-32 -28 -7 -1 -15 -12 -18 -26 -3 -16 -13 -26 -28 -28 -17 -3 -22 -10 -22 -35
0 -41 -14 -62 -34 -54 -12 5 -16 0 -16 -21 0 -50 -11 -74 -31 -69 -17 5 -19
-1 -19 -51 0 -64 -11 -88 -34 -79 -14 6 -16 -24 -16 -313 0 -289 2 -319 16
-313 23 9 34 -15 34 -79 0 -50 2 -56 19 -51 20 5 31 -19 31 -69 0 -21 4 -26
16 -21 20 8 34 -13 34 -54 0 -25 5 -32 22 -35 15 -2 25 -12 28 -28 3 -14 11
-25 18 -26 29 -2 32 -5 32 -28 0 -18 6 -25 23 -28 14 -2 23 -11 25 -26 3 -16
10 -22 28 -22 23 0 26 -3 28 -32 1 -7 12 -15 26 -18 16 -3 26 -13 28 -28 3
-17 10 -22 35 -22 41 0 62 -14 54 -34 -5 -12 0 -16 21 -16 49 0 74 -11 69 -31
-4 -15 5 -18 62 -24 86 -9 676 -9 762 0 57 6 66 9 62 24 -5 20 20 31 69 31 21
0 26 4 21 16 -8 20 13 34 54 34 25 0 32 5 35 22 2 15 12 25 28 28 14 3 25 11
26 18 2 29 5 32 28 32 18 0 25 6 28 23 2 14 11 23 26 25 16 3 22 10 22 28 0
23 3 26 33 28 6 1 14 12 17 26 3 16 13 26 28 28 17 3 22 10 22 35 0 41 14 62
34 54 12 -5 16 0 16 21 0 49 11 74 31 69 15 -4 18 5 24 62 9 86 9 676 0 762
-6 57 -9 66 -24 62 -20 -5 -31 20 -31 69 0 21 -4 26 -16 21 -20 -8 -34 13 -34
54 0 25 -5 32 -22 35 -15 2 -25 12 -28 28 -3 14 -11 25 -17 26 -30 2 -33 5
-33 28 0 18 -6 25 -22 28 -15 2 -24 11 -26 26 -3 16 -10 22 -28 22 -23 0 -26
3 -28 33 -1 6 -12 14 -26 17 -16 3 -26 13 -28 28 -3 17 -10 22 -35 22 -41 0
-62 14 -54 34 5 12 0 16 -21 16 -50 0 -74 11 -69 31 5 17 -1 19 -51 19 -64 0
-88 11 -79 34 6 14 -24 16 -313 16 -289 0 -319 -2 -313 -16z m377 -261 c5 -4
1 -12 -9 -20 -16 -11 -4 -13 91 -13 110 0 138 -8 127 -36 -3 -9 9 -14 44 -16
41 -3 48 -6 51 -25 2 -17 10 -23 27 -23 15 0 31 -10 40 -24 9 -13 27 -27 41
-30 14 -4 29 -18 34 -31 5 -14 16 -25 24 -25 9 0 23 -15 32 -32 9 -18 25 -39
35 -46 25 -17 26 -65 2 -60 -11 2 -19 14 -21 31 -2 16 -8 26 -15 24 -19 -7
-47 12 -47 32 0 16 -11 20 -59 26 -68 8 -101 1 -101 -22 0 -8 -9 -17 -19 -20
-12 -3 -21 -15 -23 -32 -2 -18 -10 -27 -25 -29 -16 -2 -23 -10 -23 -27 0 -24
-24 -40 -42 -29 -6 4 -8 1 -6 -7 7 -19 -9 -49 -26 -49 -7 0 -18 -11 -24 -25
-6 -14 -18 -25 -27 -25 -8 0 -15 -5 -15 -10 0 -6 -11 -22 -25 -36 -14 -14 -32
-38 -40 -54 -9 -17 -22 -30 -30 -30 -8 0 -15 -12 -17 -27 -2 -20 -9 -29 -25
-31 -15 -2 -23 -11 -25 -30 -2 -21 -8 -27 -26 -26 -14 0 -21 -4 -18 -12 2 -6
-1 -19 -7 -28 -18 -24 -86 -10 -97 19 -5 12 -20 25 -33 29 -14 3 -27 15 -30
25 -3 14 -15 21 -38 23 -26 2 -35 8 -37 25 -2 15 -11 23 -30 25 -19 2 -28 10
-30 26 -3 19 -9 22 -53 22 -42 0 -49 -3 -49 -19 0 -13 -8 -21 -22 -23 -17 -2
-24 -12 -28 -33 -4 -21 -12 -31 -27 -33 -18 -3 -22 -12 -28 -62 -8 -73 7 -128
38 -135 12 -2 31 -6 42 -7 12 -2 20 -11 20 -23 0 -14 8 -21 30 -25 22 -4 31
-11 33 -27 2 -15 10 -23 22 -23 10 0 26 -10 35 -22 8 -13 30 -28 48 -34 20 -7
31 -17 29 -27 -2 -11 7 -17 30 -19 25 -2 34 -8 36 -25 2 -14 11 -23 25 -25 14
-2 23 -11 25 -26 3 -20 9 -22 71 -22 65 0 67 1 78 30 6 17 18 30 27 30 9 0 16
4 16 10 0 9 31 46 93 112 15 16 27 35 27 43 0 8 9 15 19 15 14 0 21 8 23 28 2
19 9 28 25 30 15 2 23 11 25 30 2 21 8 27 26 26 12 0 21 4 19 10 -6 16 12 46
27 46 7 0 18 11 24 25 6 14 18 25 27 25 8 0 15 5 15 10 0 6 14 25 31 43 17 17
35 42 40 55 5 12 14 21 21 20 6 -2 14 6 16 17 6 29 23 47 39 41 9 -4 13 4 13
24 0 25 4 30 24 30 19 0 25 6 28 28 2 19 9 28 26 30 19 3 22 9 22 53 0 43 3
50 18 47 13 -2 18 -15 20 -56 2 -40 7 -52 16 -49 28 11 36 -18 37 -132 1 -64
3 -108 6 -98 2 9 11 17 19 17 11 0 14 -15 14 -60 0 -45 -3 -60 -14 -60 -8 0
-17 8 -19 18 -3 9 -5 -35 -6 -98 -1 -116 -9 -144 -37 -133 -11 4 -14 -6 -14
-45 0 -36 -4 -52 -16 -56 -9 -3 -20 -4 -25 0 -5 3 -9 -6 -9 -20 0 -16 -9 -32
-24 -41 -13 -9 -27 -27 -30 -41 -4 -14 -18 -29 -31 -34 -14 -5 -25 -17 -25
-25 0 -9 -13 -21 -29 -26 -16 -6 -37 -21 -46 -35 -9 -15 -25 -24 -41 -24 -14
0 -23 -4 -20 -9 4 -5 3 -16 0 -25 -4 -12 -20 -16 -56 -16 -39 0 -49 -3 -45
-14 11 -28 -17 -36 -127 -36 -95 0 -107 -2 -91 -13 25 -19 6 -29 -55 -29 -61
0 -80 10 -55 29 16 11 4 13 -91 13 -110 0 -138 8 -127 36 3 9 -9 14 -49 16
-48 3 -53 5 -52 25 0 18 -5 23 -22 23 -14 0 -30 10 -39 24 -9 13 -27 27 -41
30 -14 4 -29 18 -34 31 -5 14 -17 25 -25 25 -9 0 -21 13 -26 29 -6 16 -21 37
-35 46 -14 9 -24 25 -24 40 0 17 -6 25 -22 27 -20 3 -23 10 -26 51 -2 35 -7
47 -16 44 -28 -11 -36 17 -36 128 -1 80 -3 105 -11 92 -17 -30 -29 -9 -29 53
0 62 12 83 29 53 8 -13 10 12 11 93 0 110 8 138 36 127 9 -3 14 9 16 44 3 41
6 48 26 51 16 2 22 10 22 27 0 15 10 31 25 41 14 9 28 27 31 39 3 12 16 27 30
34 13 6 24 18 24 26 0 9 15 22 33 30 17 7 38 23 45 34 7 12 23 21 36 21 18 0
25 6 28 23 3 19 10 22 51 25 35 2 47 7 44 16 -11 28 17 36 127 36 98 0 108 2
90 14 -16 12 -16 15 -4 19 8 3 22 8 30 11 16 5 79 -2 94 -11z"/>
<path d="M2174 1915 c8 -22 -25 -35 -89 -35 -44 0 -56 -3 -52 -14 9 -22 -14
-36 -61 -36 -33 0 -43 -3 -39 -14 8 -21 -13 -36 -50 -36 -26 0 -33 -4 -33 -19
0 -20 -18 -31 -51 -31 -12 0 -19 -7 -19 -20 0 -12 -10 -25 -25 -32 -14 -6 -25
-17 -25 -24 0 -16 -37 -37 -50 -29 -5 3 -10 -7 -12 -22 -2 -20 -9 -29 -25 -31
-20 -3 -23 -9 -23 -51 0 -43 2 -48 23 -47 17 1 23 -5 25 -26 3 -22 9 -28 28
-28 19 0 24 -5 24 -24 0 -18 6 -25 23 -28 14 -2 23 -11 25 -25 2 -13 11 -23
25 -25 13 -2 23 -12 27 -28 3 -14 10 -25 15 -25 19 0 35 -17 35 -36 0 -12 7
-19 19 -19 12 0 21 -9 25 -25 4 -14 13 -25 21 -25 9 0 20 -11 25 -25 5 -14 17
-25 25 -25 9 0 18 -8 22 -17 3 -10 29 -41 57 -70 158 -160 216 -223 216 -231
0 -5 9 -12 21 -15 11 -3 23 -14 26 -25 3 -11 14 -22 25 -25 11 -3 22 -14 24
-24 3 -10 15 -23 27 -28 12 -6 23 -20 25 -32 3 -21 8 -23 72 -23 64 0 69 2 72
23 2 12 13 26 25 32 12 5 24 18 27 28 2 10 13 21 24 24 11 3 22 14 25 25 3 11
14 22 25 25 11 3 22 14 25 25 3 11 14 22 25 25 11 3 22 13 25 24 3 10 16 23
30 28 22 8 25 16 30 85 6 89 14 107 34 80 12 -16 13 2 11 131 l-3 150 -47 3
c-42 3 -47 1 -50 -20 -2 -17 -11 -24 -31 -26 -16 -2 -26 -8 -24 -15 6 -17 -11
-47 -27 -47 -8 0 -16 -9 -19 -21 -3 -11 -14 -23 -25 -26 -11 -3 -22 -14 -25
-25 -3 -11 -14 -22 -25 -25 -11 -3 -22 -14 -25 -25 -3 -11 -14 -22 -24 -24
-10 -3 -23 -15 -28 -27 -13 -28 -37 -28 -50 0 -5 12 -18 24 -28 27 -10 2 -21
14 -24 25 -3 12 -12 21 -19 21 -8 0 -19 10 -25 23 -6 13 -20 27 -32 32 -13 6
-22 19 -21 32 0 12 -5 19 -12 16 -17 -6 -44 25 -37 44 5 12 2 15 -10 10 -20
-8 -48 18 -41 38 5 11 -1 15 -20 15 -21 0 -26 5 -26 24 0 18 -6 25 -22 28 -15
2 -24 11 -26 25 -2 14 -11 23 -25 25 -14 2 -23 11 -25 25 -2 13 -11 23 -25 25
-12 2 -23 11 -25 21 -3 14 4 17 38 17 26 0 39 4 35 10 -13 22 17 40 66 40 40
0 47 3 42 16 -10 27 18 34 152 34 91 1 123 4 107 11 -35 13 -17 29 33 29 50 0
68 -16 33 -29 -16 -7 14 -10 102 -11 129 0 157 -7 147 -33 -5 -13 4 -17 46
-19 47 -3 52 -5 51 -25 -1 -21 4 -23 53 -23 36 0 53 4 53 13 0 7 9 18 19 24
12 7 21 26 23 45 2 25 8 34 25 36 17 3 22 12 27 50 4 26 3 67 -1 92 l-8 45
-55 5 c-49 4 -55 7 -54 28 1 20 -4 22 -60 22 -68 0 -92 10 -83 34 6 14 -25 16
-324 16 -289 0 -330 -2 -325 -15z"/>
</g>
</svg>
